# xmcd
#
# Track frame offsets:
#	150
#	10757
#	23744
#	39767
#	54646
#	69069
#	83275
#	101391
#	113406
#	129739
#	147082
#	161503
#	173830
#	187519
#	203519
#	219762
#	236857
#	252908
#	268661
#	282767
#	295705
#	309001
#	324752
#
# Disc length: 4517 seconds
#
# Revision: 0
# Processed by: cddbd v1.5.2PL0 Copyright (c) Steve Scherf et al.
# Submitted via: audiograbber 1.83.01
#
DISCID=1311a317
DTITLE=Diamondback - Diamondback #21
DYEAR=2017
DGENRE=Country
TTITLE0=01 You´re the Reason -Allen Karl
TTITLE1=02 Sweet Thang -B. Jeff Stone
TTITLE2=03 A Broken Wing -Donna Cunningham
TTITLE3=04 This Time -Dennis Blair
TTITLE4=05 Turn It On, Turn It Up, Turn Me Loose -Sandie Dodd
TTITLE5=06 Instant Love Affair -C High Eagle
TTITLE6=07 Your Love Has a Life of it's Own -Phillip Clarkson and Sarah Patrick
TTITLE7=08 Preaching To The Choir -Kathy Keogh
TTITLE8=09 You´re The Reason God Made Oklahoma -Joe West &Julie Richardson
TTITLE9=10 Call Of The Canyon -Rex Allen
TTITLE10=11 A New Life with Jesus -Allen Karl and Donna Cunningham
TTITLE11=12 Strictly Cash -Bryan Chalker
TTITLE12=13 That´s When I Put My Foot Down -Dennis Blair and Stephanie Calvert
TTITLE13=14 Too Much in This Town -David Star
TTITLE14=15 I Still -Phillip Clarkson
TTITLE15=16 Run The Show Karen Eden
TTITLE16=17 A Death In The Family -Peter Trendholm
TTITLE17=18 Mourning Time -Ray William Roldan
TTITLE18=19 If you will see me through -Bev Cheverie
TTITLE19=20 Goodbye To Nashville -Rick Vaznis
TTITLE20=21 Start All Over Again -Ray Tombs
TTITLE21=22 I Finally Got It Wrong -Mitch Snow
TTITLE22=23 I Wished -Glenn Erickson
EXTD=
EXTT0=
EXTT1=
EXTT2=
EXTT3=
EXTT4=
EXTT5=
EXTT6=
EXTT7=
EXTT8=
EXTT9=
EXTT10=
EXTT11=
EXTT12=
EXTT13=
EXTT14=
EXTT15=
EXTT16=
EXTT17=
EXTT18=
EXTT19=
EXTT20=
EXTT21=
EXTT22=
PLAYORDER=
